:FULLY-SPECIFIED
:FORCE-ALL-JOINTS-BE-3DOF
:DEGREES
146
root 8.68382 16.366 -16.674 6.57436 7.91741 1.91407
lfemur 3.91046 4.88578 -20.5123
ltibia 30.4203 0 0
lfoot -6.21455 7.04826 0
ltoes -10.1799 0 0
rfemur -34.2269 5.91616 15.2516
rtibia 27.993 0 0
rfoot -18.2677 -5.67221 0
rtoes -17.9095 0 0
lowerback -6.34494 -2.6155 -3.0958
upperback -1.43048 -3.26605 2.84562
thorax 2.46488 -1.67754 4.36355
lowerneck -19.058 -6.35947 -13.9668
upperneck 17.6575 -7.61449 13.0208
head 9.8505 -3.14123 5.81629
lclavicle -3.54221e-14 3.52964e-15 0
lhumerus -38.0302 -18.9661 96.847
lradius 33.1637 0 0
lwrist 7.25541 0 0
lhand -5.58883 -21.2721 0
lfingers 7.12502 0 0
lthumb 20.2212 7.6176 0
rclavicle -3.54221e-14 3.52964e-15 0
rhumerus -46.0515 8.36938 -82.2325
rradius 34.3361 0 0
rwrist -18.6416 0 0
rhand -28.9681 -25.0846 0
rfingers 7.12502 0 0
rthumb -2.32088 -55.0507 0
147
root 8.65939 16.382 -16.5214 6.62706 7.98901 1.75579
lfemur 3.2823 5.05911 -20.188
ltibia 31.803 0 0
lfoot -5.79606 7.36962 0
ltoes -10.3517 0 0
rfemur -33.8529 5.67221 15.7219
rtibia 28.0807 0 0
rfoot -17.9971 -5.32903 0
rtoes -17.7418 0 0
lowerback -6.25207 -2.5627 -2.94349
upperback -1.44189 -3.20888 2.87942
thorax 2.38869 -1.6463 4.32256
lowerneck -19.0362 -6.40428 -13.9985
upperneck 17.4961 -7.67645 13.1088
head 9.80479 -3.16341 5.83983
lclavicle -3.4897e-14 4.5575e-15 0
lhumerus -38.4214 -18.6375 96.8643
lradius 32.8202 0 0
lwrist 7.10258 0 0
lhand -5.3383 -21.1335 0
lfingers 7.12502 0 0
lthumb 20.462 7.73109 0
rclavicle -3.4897e-14 4.5575e-15 0
rhumerus -46.0048 8.43534 -82.2012
rradius 34.367 0 0
rwrist -18.6613 0 0
rhand -28.9339 -25.1667 0
rfingers 7.12502 0 0
rthumb -2.28786 -55.1332 0
148
root 8.63496 16.398 -16.3688 6.67976 8.06061 1.59751
lfemur 2.65414 5.23243 -19.8636
ltibia 33.1857 0 0
lfoot -5.37756 7.69098 0
ltoes -10.5236 0 0
rfemur -33.4789 5.42827 16.1922
rtibia 28.1683 0 0
rfoot -17.7265 -4.98585 0
rtoes -17.5741 0 0
lowerback -6.1592 -2.50989 -2.79119
upperback -1.4533 -3.15171 2.91321
thorax 2.3125 -1.61506 4.28157
lowerneck -19.0145 -6.44908 -14.0303
upperneck 17.3347 -7.73841 13.1968
head 9.75908 -3.1856 5.86337
lclavicle -3.43718e-14 5.58536e-15 0
lhumerus -38.8126 -18.3089 96.8815
lradius 32.4768 0 0
lwrist 6.94975 0 0
lhand -5.08777 -20.9949 0
lfingers 7.12502 0 0
lthumb 20.7028 7.84457 0
rclavicle -3.43718e-14 5.58536e-15 0
rhumerus -45.958 8.50131 -82.1699
rradius 34.3979 0 0
rwrist -18.681 0 0
rhand -28.8997 -25.2489 0
rfingers 7.12502 0 0
rthumb -2.25484 -55.2156 0
149
root 8.61053 16.414 -16.2163 6.73246 8.13221 1.43924
lfemur 2.02598 5.40576 -19.5392
ltibia 34.5685 0 0
lfoot -4.95907 8.01234 0
ltoes -10.6954 0 0
rfemur -33.1049 5.18433 16.6625
rtibia 28.256 0 0
rfoot -17.4559 -4.64267 0
rtoes -17.4063 0 0
lowerback -6.06633 -2.45709 -2.63888
upperback -1.46471 -3.09454 2.94701
thorax 2.2363 -1.58382 4.24059
lowerneck -18.9927 -6.49388 -14.062
upperneck 17.1734 -7.80037 13.2847
head 9.71337 -3.20778 5.88691
lclavicle -3.38467e-14 6.61322e-15 0
lhumerus -39.2038 -17.9802 96.8988
lradius 32.1333 0 0
lwrist 6.79692 0 0
lhand -4.83724 -20.8563 0
lfingers 7.12502 0 0
lthumb 20.9436 7.95806 0
rclavicle -3.38467e-14 6.61322e-15 0
rhumerus -45.9113 8.56727 -82.1386
rradius 34.4288 0 0
rwrist -18.7008 0 0
rhand -28.8655 -25.331 0
rfingers 7.12502 0 0
rthumb -2.22182 -55.2981 0
150
root 8.5861 16.4299 -16.0637 6.78515 8.20381 1.28096
lfemur 1.39782 5.57909 -19.2148
ltibia 35.9512 0 0
lfoot -4.54058 8.3337 0
ltoes -10.8672 0 0
rfemur -32.7308 4.94038 17.1328
rtibia 28.3437 0 0
rfoot -17.1853 -4.29949 0
rtoes -17.2386 0 0
lowerback -5.97346 -2.40429 -2.48657
upperback -1.47611 -3.03737 2.98081
thorax 2.16011 -1.55258 4.1996
lowerneck -18.9709 -6.53869 -14.0937
upperneck 17.012 -7.86233 13.3727
head 9.66766 -3.22997 5.91045
lclavicle -3.33216e-14 7.64109e-15 0
lhumerus -39.595 -17.6516 96.9161
lradius 31.7899 0 0
lwrist 6.64409 0 0
lhand -4.58671 -20.7177 0
lfingers 7.12502 0 0
lthumb 21.1844 8.07155 0
rclavicle -3.33216e-14 7.64109e-15 0
rhumerus -45.8646 8.63323 -82.1073
rradius 34.4596 0 0
rwrist -18.7205 0 0
rhand -28.8314 -25.4131 0
rfingers 7.12502 0 0
rthumb -2.18881 -55.3806 0
151
root 8.56167 16.4459 -15.9111 6.83785 8.27541 1.12269
lfemur 0.76966 5.75241 -18.8905
ltibia 37.334 0 0
lfoot -4.12208 8.65506 0
ltoes -11.039 0 0
rfemur -32.3568 4.69644 17.6031
rtibia 28.4314 0 0
rfoot -16.9147 -3.95631 0
rtoes -17.0709 0 0
lowerback -5.88059 -2.35148 -2.33426
upperback -1.48752 -2.9802 3.01461
thorax 2.08391 -1.52134 4.15861
lowerneck -18.9492 -6.58349 -14.1254
upperneck 16.8507 -7.92429 13.4606
head 9.62195 -3.25215 5.93399
lclavicle -3.27964e-14 8.66895e-15 0
lhumerus -39.9862 -17.3229 96.9334
lradius 31.4464 0 0
lwrist 6.49126 0 0
lhand -4.33618 -20.5791 0
lfingers 7.12502 0 0
lthumb 21.4252 8.18504 0
rclavicle -3.27964e-14 8.66895e-15 0
rhumerus -45.8178 8.6992 -82.076
rradius 34.4905 0 0
rwrist -18.7403 0 0
rhand -28.7972 -25.4952 0
rfingers 7.12502 0 0
rthumb -2.15579 -55.4631 0
152
root 8.53724 16.4619 -15.7586 6.89055 8.34701 0.964409
lfemur 0.1415 5.92574 -18.5661
ltibia 38.7167 0 0
lfoot -3.70359 8.97642 0
ltoes -11.2109 0 0
rfemur -31.9828 4.4525 18.0734
rtibia 28.5191 0 0
rfoot -16.6441 -3.61312 0
rtoes -16.9031 0 0
lowerback -5.78772 -2.29868 -2.18195
upperback -1.49893 -2.92303 3.04841
thorax 2.00772 -1.4901 4.11763
lowerneck -18.9274 -6.62829 -14.1571
upperneck 16.6893 -7.98625 13.5486
head 9.57624 -3.27434 5.95753
lclavicle -3.22713e-14 9.69681e-15 0
lhumerus -40.3774 -16.9943 96.9507
lradius 31.1029 0 0
lwrist 6.33843 0 0
lhand -4.08565 -20.4405 0
lfingers 7.12502 0 0
lthumb 21.666 8.29853 0
rclavicle -3.22713e-14 9.69681e-15 0
rhumerus -45.7711 8.76516 -82.0447
rradius 34.5214 0 0
rwrist -18.76 0 0
rhand -28.763 -25.5773 0
rfingers 7.12502 0 0
rthumb -2.12277 -55.5456 0
153
root 8.51281 16.4779 -15.606 6.94325 8.41861 0.806133
lfemur -0.486661 6.09907 -18.2417
ltibia 40.0994 0 0
lfoot -3.2851 9.29778 0
ltoes -11.3827 0 0
rfemur -31.6088 4.20856 18.5437
rtibia 28.6068 0 0
rfoot -16.3735 -3.26994 0
rtoes -16.7354 0 0
lowerback -5.69484 -2.24587 -2.02964
upperback -1.51034 -2.86586 3.08221
thorax 1.93153 -1.45885 4.07664
lowerneck -18.9056 -6.67309 -14.1888
upperneck 16.5279 -8.04821 13.6366
head 9.53053 -3.29652 5.98107
lclavicle -3.17461e-14 1.07247e-14 0
lhumerus -40.7686 -16.6657 96.968
lradius 30.7595 0 0
lwrist 6.18559 0 0
lhand -3.83512 -20.3019 0
lfingers 7.12502 0 0
lthumb 21.9068 8.41201 0
rclavicle -3.17461e-14 1.07247e-14 0
rhumerus -45.7243 8.83112 -82.0134
rradius 34.5523 0 0
rwrist -18.7797 0 0
rhand -28.7288 -25.6595 0
rfingers 7.12502 0 0
rthumb -2.08975 -55.6281 0
154
root 8.48838 16.4938 -15.4534 6.99595 8.49021 0.647857
lfemur -1.11482 6.27239 -17.9173
ltibia 41.4822 0 0
lfoot -2.8666 9.61914 0
ltoes -11.5545 0 0
rfemur -31.2348 3.96461 19.014
rtibia 28.6945 0 0
rfoot -16.1029 -2.92676 0
rtoes -16.5677 0 0
lowerback -5.60197 -2.19307 -1.87733
upperback -1.52174 -2.80869 3.11601
thorax 1.85533 -1.42761 4.03565
lowerneck -18.8839 -6.7179 -14.2205
upperneck 16.3666 -8.11017 13.7245
head 9.48482 -3.31871 6.00461
lclavicle -3.1221e-14 1.17525e-14 0
lhumerus -41.1598 -16.337 96.9853
lradius 30.416 0 0
lwrist 6.03276 0 0
lhand -3.58459 -20.1633 0
lfingers 7.12502 0 0
lthumb 22.1476 8.5255 0
rclavicle -3.1221e-14 1.17525e-14 0
rhumerus -45.6776 8.89709 -81.9821
rradius 34.5832 0 0
rwrist -18.7995 0 0
rhand -28.6946 -25.7416 0
rfingers 7.12502 0 0
rthumb -2.05673 -55.7106 0
155
root 8.46394 16.5098 -15.3009 7.04865 8.56181 0.489581
lfemur -1.74298 6.44572 -17.593
ltibia 42.8649 0 0
lfoot -2.44811 9.9405 0
ltoes -11.7263 0 0
rfemur -30.8608 3.72067 19.4843
rtibia 28.7821 0 0
rfoot -15.8324 -2.58358 0
rtoes -16.3999 0 0
lowerback -5.5091 -2.14026 -1.72502
upperback -1.53315 -2.75151 3.1498
thorax 1.77914 -1.39637 3.99466
lowerneck -18.8621 -6.7627 -14.2523
upperneck 16.2052 -8.17213 13.8125
head 9.43911 -3.34089 6.02815
lclavicle -3.06958e-14 1.27804e-14 0
lhumerus -41.5509 -16.0084 97.0025
lradius 30.0725 0 0
lwrist 5.87993 0 0
lhand -3.33406 -20.0247 0
lfingers 7.12502 0 0
lthumb 22.3883 8.63899 0
rclavicle -3.06958e-14 1.27804e-14 0
rhumerus -45.6308 8.96305 -81.9508
rradius 34.6141 0 0
rwrist -18.8192 0 0
rhand -28.6604 -25.8237 0
rfingers 7.12502 0 0
rthumb -2.02371 -55.793 0
